<svg width="24" height="24" viewBox="0 0 24 24" fill="none" xmlns="http://www.w3.org/2000/svg">
<g clip-path="url(#clip0_2164_5595)">
<path d="M16.7251 14.4546C16.1038 14.4546 15.6001 14.9247 15.6001 15.5046V17.6046C15.6001 18.1845 16.1038 18.6546 16.7251 18.6546H18.9751C19.5964 18.6546 20.1001 18.1845 20.1001 17.6046V15.5046C20.1001 14.9247 19.5964 14.4546 18.9751 14.4546H16.7251Z" fill="#637381"/>
<path d="M16.7251 8C16.1038 8 15.6001 8.47011 15.6001 9.05V11.15C15.6001 11.7299 16.1038 12.2 16.7251 12.2H18.9751C19.5964 12.2 20.1001 11.7299 20.1001 11.15V9.05C20.1001 8.47011 19.5964 8 18.9751 8H16.7251Z" fill="#637381"/>
<path d="M10.7251 14.4546C10.1038 14.4546 9.6001 14.9247 9.6001 15.5046V17.6046C9.6001 18.1845 10.1038 18.6546 10.7251 18.6546H12.9751C13.5964 18.6546 14.1001 18.1845 14.1001 17.6046V15.5046C14.1001 14.9247 13.5964 14.4546 12.9751 14.4546H10.7251Z" fill="#637381"/>
<path d="M10.7251 8C10.1038 8 9.6001 8.47011 9.6001 9.05V11.15C9.6001 11.7299 10.1038 12.2 10.7251 12.2H12.9751C13.5964 12.2 14.1001 11.7299 14.1001 11.15V9.05C14.1001 8.47011 13.5964 8 12.9751 8H10.7251Z" fill="#637381"/>
<path d="M4.7251 14.4546C4.10376 14.4546 3.6001 14.9247 3.6001 15.5046V17.6046C3.6001 18.1845 4.10376 18.6546 4.7251 18.6546H6.9751C7.59644 18.6546 8.1001 18.1845 8.1001 17.6046V15.5046C8.1001 14.9247 7.59644 14.4546 6.9751 14.4546H4.7251Z" fill="#637381"/>
<path d="M4.7251 8C4.10376 8 3.6001 8.47011 3.6001 9.05V11.15C3.6001 11.7299 4.10376 12.2 4.7251 12.2H6.9751C7.59644 12.2 8.1001 11.7299 8.1001 11.15V9.05C8.1001 8.47011 7.59644 8 6.9751 8H4.7251Z" fill="#637381"/>
<path fill-rule="evenodd" clip-rule="evenodd" d="M0 6.9375C0 4.76288 1.61178 3 3.6 3H20.4C22.3883 3 24 4.76288 24 6.9375V20.0625C24 22.2372 22.3883 24 20.4 24H3.6C1.61178 24 0 22.2372 0 20.0625V6.9375ZM3.6 5.625C2.93726 5.625 2.4 6.21263 2.4 6.9375V20.0625C2.4 20.7874 2.93726 21.375 3.6 21.375H20.4C21.0628 21.375 21.6 20.7874 21.6 20.0625V6.9375C21.6 6.21263 21.0628 5.625 20.4 5.625H3.6Z" fill="#637381"/>
<g clip-path="url(#clip1_2164_5595)">
<path d="M18.7363 5.52584H18.8481C19.5909 5.52584 20.1987 4.91804 20.1987 4.17526V1.35058C20.1987 0.607804 19.5909 0 18.8481 0H18.7363C17.9935 0 17.3857 0.607804 17.3857 1.35058V4.17498C17.3857 4.91804 17.9935 5.52584 18.7363 5.52584Z" fill="#637381"/>
</g>
<g clip-path="url(#clip2_2164_5595)">
<path d="M5.73632 5.52584H5.8481C6.59088 5.52584 7.19868 4.91804 7.19868 4.17526V1.35058C7.19868 0.607804 6.59088 0 5.8481 0H5.73632C4.99355 0 4.38574 0.607804 4.38574 1.35058V4.17498C4.38574 4.91804 4.99355 5.52584 5.73632 5.52584Z" fill="#637381"/>
</g>
</g>
<defs>
<clipPath id="clip0_2164_5595">
<rect width="24" height="24" fill="white"/>
</clipPath>
<clipPath id="clip1_2164_5595">
<rect width="4" height="4" fill="white" transform="translate(17)"/>
</clipPath>
<clipPath id="clip2_2164_5595">
<rect width="4" height="4" fill="white" transform="translate(4)"/>
</clipPath>
</defs>
</svg>
