<svg width="24" height="24" viewBox="0 0 24 24" fill="none" xmlns="http://www.w3.org/2000/svg">
<path d="M2.60946 22.9753C1.77292 22.9419 1.13928 22.1513 1.07089 20.8407C1.02993 20.0557 1 18.9768 1 17.5C1 16.0232 1.02993 14.9443 1.07089 14.1593C1.13928 12.8487 1.77292 12.0581 2.60946 12.0247C2.97545 12.0101 3.43306 12 4 12C4.56694 12 5.02455 12.0101 5.39055 12.0247C6.2271 12.0581 6.8607 12.8487 6.9291 14.1593C6.97005 14.9443 7 16.0232 7 17.5C7 18.9768 6.97005 20.0557 6.9291 20.8407C6.8607 22.1513 6.2271 22.9419 5.39055 22.9753C5.02455 22.9899 4.56694 23 4 23C3.43306 23 2.97545 22.9899 2.60946 22.9753Z" fill="#637381"/>
<path d="M18.8455 22.9674C17.8709 22.907 17.1875 21.8303 17.1243 20.3008C17.0588 18.7148 17 16.1387 17 12C17 7.86133 17.0588 5.28521 17.1243 3.69924C17.1875 2.16969 17.8709 1.09303 18.8455 1.03261C19.1671 1.01265 19.549 1 20 1C20.451 1 20.8329 1.01265 21.1545 1.03261C22.1291 1.09303 22.8125 2.16969 22.8757 3.69924C22.9412 5.28521 23 7.86133 23 12C23 16.1387 22.9412 18.7148 22.8757 20.3008C22.8125 21.8303 22.1291 22.907 21.1545 22.9674C20.8329 22.9873 20.451 23 20 23C19.549 23 19.1671 22.9873 18.8455 22.9674Z" fill="#637381"/>
<path d="M10.7766 22.9735C9.8427 22.9289 9.162 21.9658 9.0949 20.5014C9.0422 19.3504 9 17.6471 9 15.1429C9 12.6386 9.0422 10.9354 9.0949 9.78436C9.162 8.31995 9.8427 7.35682 10.7766 7.31219C11.1122 7.29616 11.5163 7.28571 12 7.28571C12.4837 7.28571 12.8878 7.29616 13.2234 7.31219C14.1573 7.35682 14.838 8.31995 14.9051 9.78436C14.9578 10.9354 15 12.6386 15 15.1429C15 17.6471 14.9578 19.3504 14.9051 20.5014C14.838 21.9658 14.1573 22.9289 13.2234 22.9735C12.8878 22.9896 12.4837 23 12 23C11.5163 23 11.1122 22.9896 10.7766 22.9735Z" fill="#637381"/>
</svg>
