<svg width="24" height="24" viewBox="0 0 24 24" fill="none" xmlns="http://www.w3.org/2000/svg">
<path fill-rule="evenodd" clip-rule="evenodd" d="M18.2263 1.6599C19.0182 0.780034 20.3021 0.780034 21.094 1.6599L22.4061 3.11773C23.198 3.99759 23.198 5.42416 22.4061 6.30404L16.5019 12.8642C16.2956 13.0934 16.0158 13.2222 15.724 13.2222H13.1C12.4925 13.2222 12 12.675 12 12V9.08435C12 8.76019 12.1159 8.44932 12.3222 8.2201L18.2263 1.6599ZM19.6602 3.52371L19.2478 3.98196L20.3162 5.16913L20.7286 4.71088L19.6602 3.52371ZM17.6922 5.71045L14.2 9.59063V10.7778H15.2684L18.7606 6.89761L17.6922 5.71045Z" fill="#637381"/>
<path d="M12.8646 5.88879H4.3C2.47746 5.88879 1 7.53042 1 9.55546V19.3332C1 21.3583 2.47746 22.9999 4.3 22.9999H19.7C21.5226 22.9999 23 21.3583 23 19.3332V9.55546C23 8.92457 22.8565 8.33089 22.604 7.81247L20.8 9.81702V19.3332C20.8 20.0083 20.3075 20.5555 19.7 20.5555H4.3C3.69249 20.5555 3.2 20.0083 3.2 19.3332V9.55546C3.2 8.88045 3.69249 8.33324 4.3 8.33324H11.0064C11.1125 7.96803 11.2955 7.63221 11.5444 7.35578L12.8646 5.88879Z" fill="#637381"/>
<path d="M5.3998 13.2224C4.7923 13.2224 4.2998 13.7696 4.2998 14.4446C4.2998 15.1197 4.7923 15.6669 5.3998 15.6669H6.4998C7.10731 15.6669 7.5998 15.1197 7.5998 14.4446C7.5998 13.7696 7.10731 13.2224 6.4998 13.2224H5.3998Z" fill="#637381"/>
<path d="M5.3998 16.8888C4.7923 16.8888 4.2998 17.436 4.2998 18.111C4.2998 18.786 4.7923 19.3332 5.3998 19.3332H18.5998C19.2073 19.3332 19.6998 18.786 19.6998 18.111C19.6998 17.436 19.2073 16.8888 18.5998 16.8888H5.3998Z" fill="#637381"/>
<path d="M8.7002 14.4446C8.7002 13.7696 9.19269 13.2224 9.80019 13.2224H10.9002C11.5077 13.2224 12.0002 13.7696 12.0002 14.4446C12.0002 15.1197 11.5077 15.6669 10.9002 15.6669H9.80019C9.19269 15.6669 8.7002 15.1197 8.7002 14.4446Z" fill="#637381"/>
</svg>
