<svg width="24" height="24" viewBox="0 0 24 24" fill="none" xmlns="http://www.w3.org/2000/svg">
<path fill-rule="evenodd" clip-rule="evenodd" d="M19.7 3.25C19.7 2.55965 19.2075 2 18.6 2H17.2908C16.0514 2 14.8761 2.62559 14.0826 3.70755C13.0722 5.08544 11.6601 6.00548 10.1032 6.30034L6.40896 7H4.3C2.47747 7 1 8.67894 1 10.75V13.25C1 14.3606 1.42488 15.3585 2.1 16.0451V18.875C2.1 20.6009 3.33122 22 4.85 22C6.36878 22 7.6 20.6009 7.6 18.875V17.2256L9.8847 17.6582C11.632 17.9893 13.2449 18.9324 14.4976 20.3559C15.4239 21.4086 16.6804 22 17.9905 22H18.6C19.2075 22 19.7 21.4404 19.7 20.75V3.25ZM7.6 14.6911V9.30891L10.4648 8.76632C12.5414 8.37303 14.4249 7.14586 15.7727 5.30801C16.1481 4.79603 16.7043 4.5 17.2908 4.5H17.5V19.4498C16.9556 19.3371 16.4498 19.0389 16.0532 18.5881C14.4762 16.7961 12.446 15.6089 10.2464 15.1922L7.6 14.6911ZM4.3 9.5H5.4V14.5H4.3C3.69249 14.5 3.2 13.9404 3.2 13.25V10.75C3.2 10.0596 3.69249 9.5 4.3 9.5ZM5.4 17H4.3V18.875C4.3 19.2201 4.54625 19.5 4.85 19.5C5.15375 19.5 5.4 19.2201 5.4 18.875V17Z" fill="#637381"/>
<path d="M22.9998 10.75C22.9998 10.0596 22.5073 9.5 21.8998 9.5C21.2923 9.5 20.7998 10.0596 20.7998 10.75V13.25C20.7998 13.9404 21.2923 14.5 21.8998 14.5C22.5073 14.5 22.9998 13.9404 22.9998 13.25V10.75Z" fill="#637381"/>
</svg>
