<svg width="24" height="24" viewBox="0 0 24 24" fill="none" xmlns="http://www.w3.org/2000/svg">
<path fill-rule="evenodd" clip-rule="evenodd" d="M3.6 1.5C1.61178 1.5 0 3.26288 0 5.4375V18.5625C0 20.7372 1.61178 22.5 3.6 22.5H20.4C22.3883 22.5 24 20.7372 24 18.5625V5.4375C24 3.26288 22.3883 1.5 20.4 1.5H3.6ZM2.4 5.4375C2.4 4.71263 2.93726 4.125 3.6 4.125H20.4C21.0628 4.125 21.6 4.71263 21.6 5.4375V18.5625C21.6 19.2874 21.0628 19.875 20.4 19.875H3.6C2.93726 19.875 2.4 19.2874 2.4 18.5625V5.4375Z" fill="#637381"/>
<path d="M6.4 7.5C6.4 6.67158 5.86275 6 5.2 6C4.53726 6 4 6.67158 4 7.5V16.5C4 17.3285 4.53726 18 5.2 18C5.86274 18 6.4 17.3285 6.4 16.5V7.5Z" fill="#637381"/>
<path d="M9.5999 6C10.2627 6 10.7999 6.67158 10.7999 7.5V16.5C10.7999 17.3285 10.2627 18 9.5999 18C8.93714 18 8.3999 17.3285 8.3999 16.5V7.5C8.3999 6.67158 8.93714 6 9.5999 6Z" fill="#637381"/>
<path d="M15.1998 7.5C15.1998 6.67158 14.6626 6 13.9998 6C13.337 6 12.7998 6.67158 12.7998 7.5V16.5C12.7998 17.3285 13.337 18 13.9998 18C14.6626 18 15.1998 17.3285 15.1998 16.5V7.5Z" fill="#637381"/>
<path d="M18.3997 6C19.0625 6 19.5997 6.67158 19.5997 7.5V16.5C19.5997 17.3285 19.0625 18 18.3997 18C17.7369 18 17.1997 17.3285 17.1997 16.5V7.5C17.1997 6.67158 17.7369 6 18.3997 6Z" fill="#637381"/>
</svg>
 