<svg width="24" height="24" viewBox="0 0 24 24" fill="none" xmlns="http://www.w3.org/2000/svg">
<path d="M16.1254 22.6032C16.4901 22.6032 16.8398 22.4583 17.0977 22.2005C17.3555 21.9426 17.5004 21.5929 17.5004 21.2282V14.0093C17.5004 13.28 17.2107 12.5805 16.6949 12.0647C16.1792 11.549 15.4797 11.2593 14.7504 11.2593H9.25028C8.52093 11.2593 7.82145 11.549 7.30571 12.0647C6.78998 12.5805 6.50024 13.28 6.50024 14.0093V21.2282C6.50024 21.5929 6.64511 21.9426 6.90298 22.2005C7.16084 22.4583 7.51059 22.6032 7.87526 22.6032C8.23994 22.6032 8.58968 22.4583 8.84755 22.2005C9.10542 21.9426 9.25028 21.5929 9.25028 21.2282V19.1656H14.7504V21.2282C14.7504 21.5929 14.8952 21.9426 15.1531 22.2005C15.411 22.4583 15.7607 22.6032 16.1254 22.6032ZM9.25028 16.4156V14.0093H14.7504V16.4156H9.25028Z" fill="#637381"/>
<path d="M2.37478 22.603C2.73946 22.603 3.0892 22.4581 3.34706 22.2002C3.60493 21.9424 3.7498 21.5926 3.7498 21.2279V10.4615C3.74994 10.1785 3.81999 9.89984 3.95372 9.65037C4.08745 9.4009 4.28073 9.18832 4.51637 9.0315L11.0477 4.67613C11.3302 4.48768 11.6621 4.38712 12.0016 4.38712C12.3412 4.38712 12.6731 4.48768 12.9556 4.67613L19.4869 9.0315C19.7219 9.18871 19.9145 9.40146 20.0476 9.65091C20.1807 9.90035 20.2503 10.1788 20.25 10.4615V21.1695C20.2431 21.5196 20.3661 21.8598 20.5953 22.1245C20.8244 22.3892 21.1435 22.5597 21.491 22.603C21.6825 22.6217 21.8758 22.6001 22.0584 22.5394C22.2411 22.4788 22.4089 22.3805 22.5512 22.2509C22.6934 22.1213 22.8069 21.9632 22.8842 21.787C22.9615 21.6108 23.001 21.4204 23.0001 21.2279V10.4615C23.0002 9.7256 22.8186 9.00104 22.4714 8.35218C22.1242 7.70332 21.6221 7.15025 21.0097 6.7421L14.5403 2.42797C14.0582 2.09976 13.5181 1.86642 12.9487 1.74046C12.3615 1.61199 11.7543 1.60331 11.1637 1.71495C10.573 1.82658 10.011 2.05623 9.51113 2.39016L2.97979 6.74553C2.36981 7.15454 1.87005 7.70758 1.52469 8.35572C1.17934 9.00385 0.999043 9.72712 0.999758 10.4615V21.2279C0.999758 21.5926 1.14463 21.9424 1.40249 22.2002C1.66036 22.4581 2.0101 22.603 2.37478 22.603Z" fill="#637381"/>
</svg>
