<svg width="24" height="24" viewBox="0 0 24 24" fill="none" xmlns="http://www.w3.org/2000/svg">
<path d="M22.8 21.6H21.72C20.64 21.6 20.28 20.64 19.44 20.04L22.68 11.16C22.92 10.56 22.68 9.96 22.08 9.72L19.08 8.16L18 0.96C17.88 0.36 17.4 0 16.8 0H7.2C6.6 0 6 0.48 6 0.96L4.8 8.16L1.8 9.72C1.2 9.96 0.96 10.68 1.2 11.16L4.44 20.16C4.08 20.52 3.84 20.64 3.48 21.12C3.12 21.48 2.76 21.6 2.28 21.6H1.2C0.48 21.6 0 22.08 0 22.8C0 23.52 0.48 24 1.2 24H2.4C3.48 24 4.44 23.64 5.28 22.8C5.88 22.2 6.36 21.6 7.2 21.6C8.28 21.6 8.52 22.08 9.24 22.8C10.8 24.36 13.44 24.36 15 22.8L15.72 22.08C16.32 21.48 17.52 21.36 18.24 22.08C19.32 23.16 20.16 24 21.84 24H22.8C23.52 24 24 23.52 24 22.8C24 22.08 23.52 21.6 22.8 21.6ZM8.16 2.4H15.72L16.44 6.84L12.48 4.92C12.12 4.8 11.76 4.8 11.4 4.92L7.44 6.84L8.16 2.4ZM11.88 7.32C18.48 10.56 16.68 9.72 20.04 11.4L19.44 13.2L12.48 9.72C12.12 9.6 11.76 9.6 11.4 9.72L4.44 13.2L3.84 11.4C7.08 9.72 5.52 10.56 11.88 7.32ZM13.2 21.12C12.6 21.72 11.52 21.72 10.8 21.12C9.6 19.8 8.76 19.08 6.72 19.2L5.28 15.36L11.88 12L18.48 15.36L17.16 19.2C15.12 19.08 14.4 19.92 13.2 21.12Z" fill="#637381"/>
</svg>
