<svg width="24" height="24" viewBox="0 0 24 24" fill="none" xmlns="http://www.w3.org/2000/svg">
<path d="M5.35051 23H18.6528C19.1136 23.0014 19.5696 22.9045 19.9922 22.7154C20.4148 22.5264 20.7948 22.2492 21.1083 21.9014C21.4218 21.5537 21.662 21.1428 21.8138 20.6947C21.9655 20.2466 22.0256 19.771 21.9901 19.2978C21.9338 18.4678 21.7396 17.6539 21.4161 16.8915C20.9377 15.759 20.1921 14.7675 19.2469 14.0075C18.6938 13.5631 18.113 13.1566 17.5081 12.7906C18.2708 11.6477 18.6781 10.2931 18.6762 8.90624V7.87499C18.6762 6.05163 17.973 4.30295 16.7213 3.01364C15.4696 1.72433 13.7719 1 12.0017 1H11.8782C10.115 1.06082 8.44426 1.82737 7.221 3.13679C5.99774 4.44622 5.31834 6.19532 5.32715 8.01249V8.90624C5.32523 10.2931 5.73258 11.6477 6.49519 12.7906C5.88981 13.1557 5.30893 13.5622 4.75648 14.0075C3.96428 14.6418 3.31039 15.4405 2.83723 16.3519C2.36406 17.2633 2.0822 18.267 2.00991 19.2978C1.97441 19.7713 2.03453 20.2472 2.18648 20.6955C2.33844 21.1438 2.57893 21.5549 2.89279 21.9027C3.20665 22.2506 3.58708 22.5276 4.01008 22.7165C4.43308 22.9053 4.88949 23.0019 5.35051 23ZM5.01678 17.9881C5.31809 17.2765 5.78729 16.6538 6.38172 16.1765C7.33371 15.4022 8.39349 14.7799 9.52542 14.3306C9.74963 14.2485 9.94559 14.1006 10.0891 13.9052C10.2326 13.7097 10.3174 13.4752 10.333 13.2306C10.3249 13.0572 10.276 12.8883 10.1906 12.7386C10.1051 12.589 9.98567 12.4629 9.84246 12.3712C9.27787 11.9989 8.81305 11.4866 8.49061 10.8812C8.16817 10.2758 7.99843 9.59675 7.99696 8.90624V8.01249C7.98397 6.91448 8.38756 5.85462 9.12181 5.0585C9.85607 4.26239 10.863 3.79291 11.9282 3.75H12.0017C13.0638 3.75 14.0824 4.18459 14.8334 4.95818C15.5845 5.73177 16.0064 6.78097 16.0064 7.87499V8.90624C16.0056 9.59611 15.8369 10.2748 15.5157 10.8801C15.1944 11.4854 14.7309 11.9981 14.1676 12.3712C14.0231 12.4621 13.9023 12.5878 13.8157 12.7375C13.729 12.8873 13.6791 13.0565 13.6703 13.2306C13.6843 13.4728 13.7661 13.7055 13.9059 13.9008C14.0457 14.096 14.2374 14.2453 14.4579 14.3306C15.5892 14.7812 16.6488 15.4034 17.6016 16.1765C18.1021 16.573 18.5159 17.0736 18.816 17.6457C19.1162 18.2179 19.2959 18.8487 19.3436 19.4972C19.3499 19.5977 19.3353 19.6985 19.3008 19.7927C19.2663 19.887 19.2126 19.9725 19.1434 20.0437C19.0808 20.1095 19.006 20.1617 18.9235 20.1971C18.8409 20.2325 18.7523 20.2505 18.6628 20.25H5.35051C5.26108 20.2505 5.17245 20.2325 5.0899 20.1971C5.00734 20.1617 4.93254 20.1095 4.86994 20.0437C4.80074 19.9725 4.74709 19.887 4.71256 19.7927C4.67803 19.6985 4.66342 19.5977 4.66971 19.4972C4.7069 18.9769 4.82873 18.4668 5.03013 17.9881H5.01678Z" fill="#637381"/>
</svg>
